<svg width="258" height="132" viewBox="0 0 258 132" fill="none" xmlns="http://www.w3.org/2000/svg">
<g clip-path="url(#clip0_5149_1220)">
<path d="M62.4182 24.2109H11.2222C7.25813 24.2109 4 21.2544 4 17.6158C4 13.9771 7.25813 11.0103 11.2222 11.0103H62.4182C77.7531 11.0103 90.1883 22.3605 90.1883 36.3156C90.1883 43.7274 86.6478 50.3845 81.0329 54.9845C86.6478 59.6465 90.1883 66.314 90.1883 73.705C90.1883 87.6705 77.7422 98.9897 62.4182 98.9897H11.2222C7.25813 98.9897 4 96.0643 4 92.3946C4 88.7559 7.25813 85.8098 11.2222 85.8098H62.4182C69.749 85.8098 75.7113 80.3518 75.7113 73.705C75.7113 67.0583 69.749 61.6003 62.4182 61.6003H11.2222C7.25813 61.6003 4 58.6438 4 54.9845C4 51.3355 7.25813 48.3894 11.2222 48.3894H42.4459H62.429C69.7598 48.3894 75.7222 42.9934 75.7222 36.3156C75.7113 29.6378 69.749 24.2109 62.4182 24.2109ZM216.56 24.2109H267.778C271.753 24.2109 275 21.2544 275 17.6158C275 13.9771 271.764 11.0103 267.778 11.0103H216.56C201.258 11.0103 188.801 22.3605 188.801 36.3156C188.801 43.7274 192.331 50.3845 197.956 54.9845C192.32 59.6465 188.801 66.314 188.801 73.705C188.801 87.6705 201.258 98.9897 216.56 98.9897H267.778C271.753 98.9897 275 96.0643 275 92.3946C275 88.7559 271.764 85.8098 267.778 85.8098H216.56C209.251 85.8098 203.278 80.3518 203.278 73.705C203.278 67.0583 209.24 61.6003 216.56 61.6003H267.778C271.753 61.6003 275 58.6438 275 54.9845C275 51.3355 271.764 48.3894 267.778 48.3894H236.554H216.56C209.251 48.3894 203.278 42.9934 203.278 36.3156C203.289 29.6378 209.251 24.2109 216.56 24.2109ZM124.855 24.2109H176.072C180.113 24.2109 183.349 21.2544 183.349 17.6158C183.349 13.9564 180.123 11 176.072 11H124.855C109.596 11 97.1281 22.3708 97.1281 36.326C97.1281 50.2604 109.596 61.6106 124.855 61.6106H155.579C162.877 61.6106 168.861 67.0583 168.861 73.7154C168.861 80.3828 162.888 85.8202 155.579 85.8202H104.361C100.386 85.8202 97.1281 88.7662 97.1281 92.4049C97.1281 96.0746 100.386 99 104.361 99H155.579C170.859 99 183.338 87.6912 183.338 73.7154C183.338 59.7499 170.859 48.3997 155.579 48.3997H124.855C117.546 48.3997 111.594 43.0038 111.594 36.326C111.594 29.6378 117.546 24.2109 124.855 24.2109Z" fill="#0089CF"/>
<path d="M5.6694 108.936H17.2648L17.0648 110.471H6.93889L6.44909 114.159H16.555L16.3551 115.684H6.22918L5.70939 119.382H15.8453L15.6354 120.897H4.05005L5.6694 108.936ZM30.9793 108.946L25.5514 113.84L21.4631 108.946H19.4239L24.3819 114.89L17.7446 120.897H19.8737L25.3115 116.003L29.3899 120.897H31.4191L26.4511 114.942L33.1084 108.936H30.9793V108.946ZM45.4835 109.306C47.6526 109.925 47.9425 111.305 47.7926 112.346C47.5926 113.86 46.563 114.849 44.7038 115.282C43.7342 115.55 42.2948 115.673 40.4155 115.673H35.7774L35.0576 120.886H33.5782L35.2076 108.936H41.2652C43.1744 108.946 44.5638 109.069 45.4835 109.306ZM41.1752 114.159C42.3047 114.159 43.2844 114.056 44.194 113.829C45.0936 113.623 46.2132 113.19 46.3331 112.284C46.3831 111.995 46.4931 111.13 44.4639 110.697C43.7342 110.553 42.7046 110.471 41.4251 110.471H36.4871L35.9673 114.159H41.1752ZM48.7622 120.897H60.3675L60.5774 119.382H50.4615L50.9613 115.684H61.0772L61.2872 114.159H51.1612L51.661 110.471H61.777L61.9969 108.936H50.4015L48.7622 120.897ZM75.1416 109.306C77.3207 109.925 77.6006 111.305 77.4707 112.346C77.3007 113.53 76.551 114.396 75.2516 114.973C74.3519 115.303 73.2324 115.529 71.9029 115.622L76.3011 120.897H74.262L69.9037 115.684H65.4455L64.7358 120.897H63.2564L64.8957 108.946H70.9633C72.8325 108.946 74.252 109.069 75.1416 109.306ZM76.0013 112.284C76.0413 111.995 76.1512 111.13 74.102 110.697C73.3823 110.553 72.3627 110.471 71.0832 110.471H66.1352L65.6354 114.159H70.8033C71.9429 114.159 72.9325 114.056 73.8321 113.829C74.7718 113.623 75.8713 113.18 76.0013 112.284ZM79.15 120.897H80.6394L82.2688 108.936H80.7794L79.15 120.897ZM83.4983 120.897H95.1036L95.2935 119.382H85.1976L85.6774 115.684H95.8133L96.0133 114.159H85.8973L86.3871 110.471H96.5331L96.723 108.936H85.1176L83.4983 120.897ZM109.818 118.826L101.041 108.946H99.5818L97.9625 120.897H99.4319L100.781 111.048L109.548 120.897H111.017L112.637 108.946H111.177L109.818 118.826ZM117.675 111.254C118.604 110.728 120.014 110.471 121.863 110.471C123.012 110.471 123.952 110.563 124.622 110.749C125.591 110.996 126.291 111.491 126.691 112.201L126.781 112.387L128.22 111.728L128.11 111.521C127.271 109.801 125.222 108.936 122.003 108.936C119.754 108.936 117.964 109.358 116.725 110.141C115.196 111.089 114.286 112.696 113.976 114.88C113.676 117.085 114.176 118.723 115.455 119.681C116.495 120.495 118.124 120.886 120.433 120.886C123.622 120.886 125.891 120.062 127.201 118.373L127.391 118.136L126.081 117.445L125.951 117.6C125.392 118.301 124.592 118.785 123.432 119.145C122.743 119.3 121.793 119.372 120.583 119.372C118.704 119.372 117.405 119.114 116.635 118.568C115.595 117.878 115.206 116.693 115.455 114.932C115.685 113.17 116.425 111.964 117.675 111.254ZM129.08 120.897H140.705L140.905 119.382H130.769L131.279 115.684H141.385L141.605 114.159H131.489L131.989 110.471H142.115L142.315 108.936H130.709L129.08 120.897ZM151.141 110.471H156.919L155.489 120.897H156.969L158.378 110.471H164.196L164.406 108.936H151.341L151.141 110.471ZM177.031 114.159H166.935L167.625 108.946H166.155L164.526 120.897H166.015L166.735 115.684H176.811L176.101 120.897H177.581L179.21 108.946H177.731L177.031 114.159ZM180.449 120.897H192.045L192.255 119.382H182.139L182.639 115.684H192.755L192.974 114.159H182.849L183.348 110.471H193.464L193.684 108.936H182.069L180.449 120.897ZM214.026 118.826L205.23 108.946H203.79L202.151 120.897H203.63L204.98 111.048L213.706 120.814L213.746 120.886H215.216L216.845 108.936H215.366L214.026 118.826ZM218.044 120.897H229.66L229.87 119.382H219.754L220.254 115.684H230.36L230.569 114.159H220.453L220.953 110.471H231.059L231.279 108.936H219.664L218.044 120.897ZM252.311 108.946L246.283 119.114L244.074 108.946H242.525L237.537 119.125L234.298 108.946H232.729L236.497 120.907H238.256L243.014 111.202L245.134 120.907H246.893L253.96 108.946H252.311Z" fill="#DB5C1E"/>
</g>
<defs>
<clipPath id="clip0_5149_1220">
<rect width="250" height="110" fill="white" transform="translate(4 11)"/>
</clipPath>
</defs>
</svg>
