<svg width="40" height="40" viewBox="0 0 40 40" fill="none" xmlns="http://www.w3.org/2000/svg">
<circle cx="20" cy="20" r="20" fill="white"/>
<path d="M20.1904 9.5C14.4971 9.5 9.88128 14.0797 9.88128 19.7296C9.88128 21.6623 10.4218 23.4698 11.3606 25.0118L9.5 30.5L15.2077 28.6868C16.6846 29.497 18.3832 29.9592 20.1904 29.9592C25.8845 29.9592 30.5 25.3789 30.5 19.7296C30.5 14.0797 25.8845 9.5 20.1904 9.5ZM25.3168 23.6145C25.0742 24.2158 23.9773 24.7645 23.4934 24.7898C23.0099 24.8154 22.9961 25.1645 20.3602 24.0194C17.7247 22.8741 16.139 20.0893 16.014 19.9099C15.8889 19.7312 14.9931 18.4546 15.0414 17.1698C15.0901 15.8848 15.7936 15.2786 16.0447 15.0265C16.2956 14.774 16.5831 14.7287 16.7587 14.7259C16.9663 14.7225 17.1007 14.7197 17.2543 14.7253C17.4078 14.7312 17.6383 14.6932 17.8379 15.224C18.0374 15.7548 18.515 17.0593 18.576 17.1923C18.6371 17.3254 18.6748 17.4794 18.5808 17.6503C18.4865 17.8215 18.4382 17.9285 18.3014 18.0761C18.1638 18.2236 18.012 18.4062 17.8893 18.519C17.7524 18.6439 17.6094 18.7802 17.7533 19.0472C17.8971 19.3141 18.3933 20.1889 19.1492 20.9098C20.1207 21.8366 20.9585 22.144 21.2163 22.2841C21.4748 22.4249 21.6291 22.4092 21.7894 22.2405C21.949 22.0718 22.4756 21.5024 22.6611 21.2482C22.8465 20.9933 23.0202 21.0432 23.2584 21.1391C23.4964 21.2352 24.7657 21.9151 25.0243 22.0555C25.2826 22.1956 25.4552 22.2678 25.517 22.379C25.5787 22.4905 25.5592 23.0132 25.3168 23.6145Z" fill="url(#paint0_linear_3779_1333)"/>
<defs>
<linearGradient id="paint0_linear_3779_1333" x1="30.5" y1="19.0933" x2="-2.47323" y2="19.1515" gradientUnits="userSpaceOnUse">
<stop offset="0.155996" stop-color="#06A358"/>
<stop offset="1" stop-color="#001EFE"/>
</linearGradient>
</defs>
</svg>
